<svg width="14" height="14" viewBox="0 0 14 14" fill="none" xmlns="http://www.w3.org/2000/svg">
<path d="M5.81538 7.03015L2.94646 2.81723L1.73169 1.344L0 0.904617L0.129227 0L3.28246 0.129234L6.61662 0L6.56493 0.904617L4.83323 1.31815L5.24677 2.30031L7.23692 5.32431H7.34031L8.21908 4.032L9.48554 2.45538L10.1059 1.344L8.27077 0.904617L8.4 0L11.2172 0.129234L13.9311 0L13.8794 0.904617L12.2769 1.344L11.0622 2.58462L8.14154 6.20308L11.9668 11.76L13.6985 12.2769L13.5692 13.1815L10.6745 13.0523L7.52123 13.1815L7.57292 12.2769L8.91692 11.8634L8.29662 10.5452L7.03015 8.78769L6.48739 7.98647H6.40984L4.62646 10.5711L3.85107 11.8375L5.40185 12.2769L5.27261 13.1815L2.73969 13.0523L0.103386 13.1815L0.155075 12.2769L2.016 11.76L5.81538 7.03015Z" fill="black"/>
</svg>
