<svg width="57" height="51" viewBox="0 0 57 51" fill="none" xmlns="http://www.w3.org/2000/svg">
<g filter="url(#filter0_d_1004_7)">
<path d="M48.463 8.23404H29.7224L23.8167 1.5354C23.391 1.05272 22.8687 0.666375 22.2842 0.401747C21.6998 0.137119 21.0664 0.000202772 20.4257 0H8.53704C7.33415 0.00134942 6.18091 0.483734 5.33035 1.34132C4.47978 2.19891 4.00134 3.36166 4 4.57447V38.5662C4.0013 39.7418 4.46503 40.8687 5.28943 41.6999C6.11383 42.5311 7.23159 42.9987 8.39747 43H48.6646C49.814 42.9987 50.916 42.5377 51.7287 41.7183C52.5415 40.8988 52.9987 39.7877 53 38.6288V12.8085C52.9987 11.5957 52.5202 10.433 51.6697 9.57536C50.8191 8.71778 49.6658 8.23539 48.463 8.23404ZM9.44444 5.48936H20.0183L22.438 8.23404H9.44444V5.48936ZM47.5556 37.5106H9.44444V13.7234H47.5556V37.5106Z" fill="white"/>
<path d="M48.463 8.23404H29.7224L23.8167 1.5354C23.391 1.05272 22.8687 0.666375 22.2842 0.401747C21.6998 0.137119 21.0664 0.000202772 20.4257 0H8.53704C7.33415 0.00134942 6.18091 0.483734 5.33035 1.34132C4.47978 2.19891 4.00134 3.36166 4 4.57447V38.5662C4.0013 39.7418 4.46503 40.8687 5.28943 41.6999C6.11383 42.5311 7.23159 42.9987 8.39747 43H48.6646C49.814 42.9987 50.916 42.5377 51.7287 41.7183C52.5415 40.8988 52.9987 39.7877 53 38.6288V12.8085C52.9987 11.5957 52.5202 10.433 51.6697 9.57536C50.8191 8.71778 49.6658 8.23539 48.463 8.23404ZM9.44444 5.48936H20.0183L22.438 8.23404H9.44444V5.48936ZM47.5556 37.5106H9.44444V13.7234H47.5556V37.5106Z" stroke="black" stroke-width="0.00256"/>
</g>
<defs>
<filter id="filter0_d_1004_7" x="-0.00128174" y="-0.00128174" width="57.0026" height="51.0026" filterUnits="userSpaceOnUse" color-interpolation-filters="sRGB">
<feFlood flood-opacity="0" result="BackgroundImageFix"/>
<feColorMatrix in="SourceAlpha" type="matrix" values="0 0 0 0 0 0 0 0 0 0 0 0 0 0 0 0 0 0 127 0" result="hardAlpha"/>
<feOffset dy="4"/>
<feGaussianBlur stdDeviation="2"/>
<feComposite in2="hardAlpha" operator="out"/>
<feColorMatrix type="matrix" values="0 0 0 0 0 0 0 0 0 0 0 0 0 0 0 0 0 0 0.25 0"/>
<feBlend mode="normal" in2="BackgroundImageFix" result="effect1_dropShadow_1004_7"/>
<feBlend mode="normal" in="SourceGraphic" in2="effect1_dropShadow_1004_7" result="shape"/>
</filter>
</defs>
</svg>
