<svg width="17" height="17" viewBox="0 0 17 17" fill="none" xmlns="http://www.w3.org/2000/svg">
<path d="M11.528 0.0605469L12.6852 0.137695L13.8424 0.224609L14.6627 0.405273C14.9323 0.50945 15.1912 0.662961 15.4137 0.888672C15.8681 1.35028 16.0168 1.94758 16.0182 2.50391L16.027 3.5918V4.67969L16.0534 6.90723L16.07 8.06445L16.0963 9.22168L16.1744 11.4932L16.234 12.6494L16.2858 13.8066V14.2295C16.2472 14.6587 16.1019 15.1026 15.7682 15.4736C15.3168 15.9741 14.6968 16.1374 14.1452 16.1553L13.0133 16.1904L11.8825 16.2334L9.62855 16.3369L8.47133 16.415L7.32289 16.4834L4.91371 16.5352L3.76527 16.5186L2.60902 16.4922C2.06927 16.4819 1.47904 16.3503 1.01136 15.9307C0.530638 15.4976 0.34125 14.9121 0.312144 14.3594L0.207652 12.2178C0.170153 11.4916 0.141124 10.7378 0.130503 9.95605L0.112925 8.79883L0.104136 7.6416C0.0935971 6.86247 0.0928623 6.08089 0.104136 5.30176L0.139292 2.99609V2.00293L0.112925 1.95117L0.0699566 1.81348C-0.0769323 1.40903 0.0202353 0.999031 0.242808 0.716797C0.411658 0.503759 0.614625 0.400625 0.699839 0.362305C0.884046 0.279948 1.08108 0.249322 1.19203 0.232422C1.44852 0.193578 1.79329 0.173631 2.18519 0.164062L3.33363 0.137695L4.49086 0.103516L9.11097 0L11.528 0.0605469ZM3.39418 2.33984L2.34926 2.36523V3.02148L2.31508 5.33594C2.30408 6.09544 2.30478 6.85573 2.31508 7.61523L2.32386 8.77246L2.34047 9.9209C2.35073 10.6777 2.3738 11.4087 2.4098 12.1055L2.47035 13.1768L2.52211 14.2383V14.2646C2.5534 14.2694 2.59628 14.2812 2.65199 14.2822L3.80922 14.3076L4.95765 14.3252L7.1764 14.2822L8.33363 14.2041L9.49086 14.1348L11.8131 14.0225L12.945 13.9795L14.0758 13.9453L14.0846 13.9365V13.9189L13.9635 11.6045L13.8854 9.26465L13.86 8.10742L13.8424 6.95117C13.8278 6.17598 13.8188 5.42147 13.817 4.68848V3.60059L13.8082 2.50391L13.7995 2.44336L13.6784 2.42578L12.5211 2.34863L11.3639 2.26172L9.16273 2.20996L3.39418 2.33984Z" fill="black"/>
</svg>
